<svg xmlns="http://www.w3.org/2000/svg" viewBox="0 0 316.04 40.03"><defs><style>.cls-1{fill:#dcddde;}</style></defs><title>Backdrop Header Medium</title><g id="Layer_2" data-name="Layer 2"><g id="Layer_1-2" data-name="Layer 1"><path class="cls-1" d="M274.38,24.82l18.1-1.36-22.32-1.67,34.16-2.55L273.9,17,316,13.81,244.28,8.45,263.56,7l-35.2-2.64L197.08,6.71,183,4.88,217.53,2.3,189.87.23,170.59,1.67,148.21,0,127.3,1.57l21.25,1.59L125.13,4.91,101.72,3.16l13.57-1L99.08.93,47.24,4.8,65.61,6.18,7.35,10.53,41.66,13.1l-18.1,1.35,22.32,1.67L11.72,18.67,42.14,21,0,24.1l57.91,4.33-26.51,2,28,2.09L66.63,32l21.05,1.58L119,31.2,133,33,96.56,35.75l50,3.74,10.94-.81-19.7-1.48L166,35.1l19.71,1.47,12.91-1L217,37l51.84-3.87-18.37-1.38,58.25-4.35Zm-92.84,13.8L200.43,40l18.89-1.41L200.43,37.2ZM68.47,33.32l18.89,1.41L68.47,36.15,49.58,34.73Z"/></g></g></svg>