<svg xmlns="http://www.w3.org/2000/svg" viewBox="0 0 587.44 97.99"><defs><style>.cls-1{fill:#dcddde;}</style></defs><title>Backdrop Header</title><g id="Layer_2" data-name="Layer 2"><g id="Layer_1-2" data-name="Layer 1"><path class="cls-1" d="M337.78,30.55l22.28-1.67-27.48-2.05,42.05-3.15-37.45-2.8L389.06,17,300.72,10.4l23.74-1.77L281.12,5.38l-38.5,2.88L225.3,6l42.49-3.18L233.74.29,210,2.06,182.46,0,156.71,1.93l26.16,2L154,6,125.22,3.89l16.71-1.25-20-1.5L58.15,5.91,80.76,7.6,9.06,13l42.23,3.16L29,17.79l27.48,2.05L14.43,23l37.45,2.81L0,29.66,71.29,35,38.65,37.44,73.11,40,82,39.35l25.92,1.94,38.5-2.88,17.3,2.25L118.87,44l61.6,4.6,13.47-1L169.69,45.8l34.63-2.59L228.58,45l15.89-1.18,22.62,1.69,63.82-4.77L308.3,39.07,380,33.71Zm-114.29,17,23.25,1.74L270,47.54,246.74,45.8ZM84.29,41l23.25,1.74L84.29,44.5,61,42.76Z"/><path class="cls-1" d="M388.92,82.78,407,81.42,384.7,79.75l34.16-2.55-30.42-2.27,42.14-3.15-71.76-5.37L378.1,65l-35.2-2.64-31.28,2.34-14.06-1.83,34.51-2.58-27.66-2.07-19.27,1.45L262.76,58l-20.92,1.57,21.25,1.59-23.41,1.75-23.42-1.75,13.57-1-16.21-1.21-51.84,3.87,18.37,1.38L121.9,68.49l34.3,2.57-18.1,1.35,22.32,1.67-34.15,2.55,30.41,2.28-42.14,3.15,57.92,4.33-26.52,2,28,2.1,7.24-.55,21.05,1.58,31.28-2.34L247.55,91,211.1,93.72l50,3.74,10.94-.82-19.7-1.48,28.13-2.1,19.71,1.47,12.91-1,18.37,1.37,51.84-3.87L365,89.7l58.25-4.36Zm-92.84,13.8L315,98l18.89-1.41L315,95.16ZM183,91.28,201.9,92.7,183,94.11,164.12,92.7Z"/><path class="cls-1" d="M553.09,36.77,568,35.66l-18.41-1.38,28.17-2.11L552.69,30.3l34.75-2.6-59.18-4.43,15.9-1.19-29-2.17-25.8,1.93-11.6-1.51L506.2,18.2l-22.82-1.7-15.89,1.19L449,16.31,431.78,17.6l17.53,1.31L430,20.35l-19.31-1.44,11.2-.84-13.37-1-42.76,3.2L380.9,21.4l-48,3.59,28.29,2.12-14.93,1.11,18.41,1.38-28.17,2.11,25.09,1.87-34.76,2.6,47.77,3.57-21.87,1.64,23.08,1.72,6-.44L399.11,44,424.9,42l11.59,1.51-30.06,2.24,41.27,3.09,9-.68L440.48,47l23.19-1.74,16.26,1.22,10.64-.8,15.16,1.14,42.75-3.2-15.14-1.13,48-3.59ZM476.52,48.15l15.57,1.17,15.58-1.17L492.09,47Zm-93.26-4.36L398.84,45l-15.58,1.17L367.68,45Z"/></g></g></svg>