<svg xmlns="http://www.w3.org/2000/svg" viewBox="0 0 79.02 49.32"><defs><style>.cls-1{fill:#fff;}.cls-2{fill:#231f20;}</style></defs><title>Box Rectangle</title><g id="Layer_2" data-name="Layer 2"><g id="Layer_1-2" data-name="Layer 1"><polygon class="cls-1" points="78.16 5.13 78.16 44.2 73.96 48.4 5.09 48.4 0.88 44.2 0.88 5.13 5.09 0.92 73.96 0.92 78.16 5.13"/><path class="cls-2" d="M73.44,48h-2.7a11.45,11.45,0,0,0,5.07-4.26h0v-.07a16.3,16.3,0,0,0,1.8-3.76v3.88ZM1.38,43.74V39.86a15.85,15.85,0,0,0,1.79,3.76v.07h.05A11.39,11.39,0,0,0,8.29,48H5.58ZM5.58,1.38H8.29A11.31,11.31,0,0,0,3.22,5.63H3.17V5.7A15.85,15.85,0,0,0,1.38,9.46V5.58ZM75.85,6.84c.17.3.34.58.5.9a18.45,18.45,0,0,1,1.3,3.94V37.59a17.12,17.12,0,0,1-1.8,4.87ZM1.38,11.73A17.37,17.37,0,0,1,3.17,6.86V42.48c-.16-.3-.34-.58-.49-.9a17.23,17.23,0,0,1-1.3-3.94ZM68.8,48H10.2a10.65,10.65,0,0,1-6.28-4.28v-38a10.68,10.68,0,0,1,6.31-4.3H68.82A10.53,10.53,0,0,1,75.1,5.65v38A10.71,10.71,0,0,1,68.8,48M77.65,5.58V9.46a16.3,16.3,0,0,0-1.8-3.76V5.63h0a11.37,11.37,0,0,0-5.07-4.25h2.7ZM74,0H5L0,5v39.3l5,5H74l5-5V5Z"/></g></g></svg>