<svg xmlns="http://www.w3.org/2000/svg" viewBox="0 0 34.32 14.77"><defs><style>.cls-1{fill:#fff;}.cls-2{fill:#231f20;}</style></defs><title>Coin Extra</title><g id="Layer_2" data-name="Layer 2"><g id="Layer_1-2" data-name="Layer 1"><path class="cls-1" d="M29.74,2.24a1.81,1.81,0,0,1-2.58,0A1.81,1.81,0,0,1,26.68.5h-19A1.82,1.82,0,0,1,4.58,2.24L.5,5.68V9.09l4.08,3.44a1.82,1.82,0,0,1,3.06,1.74h19a1.83,1.83,0,0,1,3.06-1.74l4.08-3.44V5.68Z"/><path class="cls-2" d="M8.19,13.77H26.13a2.29,2.29,0,0,1,.67-1.59,2.39,2.39,0,0,1,2.94-.3l3.58-3V5.92l-3.58-3a2.37,2.37,0,0,1-2.94-.3A2.29,2.29,0,0,1,26.13,1H8.2a2.3,2.3,0,0,1-.68,1.59,2.37,2.37,0,0,1-2.93.3L1,5.92V8.86l3.59,3a2.38,2.38,0,0,1,2.93.3,2.28,2.28,0,0,1,.67,1.59m19.14,1H7l.15-.62a1.3,1.3,0,0,0-.34-1.26,1.35,1.35,0,0,0-1.88,0l-.32.32L0,9.32V5.45L4.61,1.56l.32.33a1.37,1.37,0,0,0,1.88,0A1.32,1.32,0,0,0,7.15.62L7,0H27.33l-.16.62a1.32,1.32,0,0,0,.34,1.27,1.37,1.37,0,0,0,1.88,0l.33-.33,4.6,3.89V9.32l-4.6,3.89-.33-.32a1.35,1.35,0,0,0-1.88,0,1.3,1.3,0,0,0-.34,1.26Z"/></g></g></svg>