<svg xmlns="http://www.w3.org/2000/svg" viewBox="0 0 68.66 25.59"><defs><style>.cls-1{fill:#231f20;}</style></defs><title>Dragon Tail</title><g id="Layer_2" data-name="Layer 2"><g id="Layer_1-2" data-name="Layer 1"><path class="cls-1" d="M68.66,19.52c-.64-3.47-3.09-9.12-7.83-12.1C56.91,5,53.49,5.49,53.48,4.27c0-1.56,4.36-1.08,4.36-1.08C53.1.48,46.31,3.8,45.34,2.25,44.77,1.32,48.5,0,48.5,0,42.72-.2,35.91,2.78,33.18,5.48c6.89-2.32,16.59-1,21,2.82a20.4,20.4,0,0,0-6-2.19c-7.82-1.57-16.52.76-21.76,2.94A50.78,50.78,0,0,0,16,14c-3.9,2.27-11.11,4.38-16,2.31H0s7.65,12.75,17.06,8.32c.69-.39,1.35-.78,2-1.17a63.58,63.58,0,0,0,10.31-7.43,52.7,52.7,0,0,1,14-6.88,10.49,10.49,0,0,1,4.43-.33c3.72.51,7,2.89,8,5.74,2.87-.5,10.14,1.91,12.88,4.94"/></g></g></svg>