<svg xmlns="http://www.w3.org/2000/svg" viewBox="0 0 64.29 54.25"><defs><style>.cls-1{fill:#231f20;}.cls-2{fill:#fff;}</style></defs><title>Dragon Head</title><g id="Layer_2" data-name="Layer 2"><g id="Layer_1-2" data-name="Layer 1"><path class="cls-1" d="M36.45,5a22.83,22.83,0,0,0,.22,6.34,50.35,50.35,0,0,0-4.29-2.77,10,10,0,0,1-3.16-3.65c-.48-.85-.76-1.48-.76-1.48a6.6,6.6,0,0,0-1.1,7.27,14.23,14.23,0,0,0-7.88.19c9.18,6,4.3,6.5-1,9s-5.68,5.63-5.68,5.63c6.33-2.08,8.85.58,8.85.58-3.41,3.26-.37,8.35-.37,8.35,3.31,6.34,11.51,9,18.85,10.15a70.1,70.1,0,0,0,13.7.67l-16.72,5.2-15,3.79S7.18,52.65,1.7,40,5.79,17.46,4.83,16.81s-2.07.76-2.19.91C6.8,5.81,19.33,5.94,19.83,4.68s-2.47-1.35-2.47-1.35C30-.84,36.45,5,36.45,5"/><path class="cls-2" d="M49.11,20.82a7.63,7.63,0,0,1,4.29,4.66c-2.85-.08-3.69-2.28-4.29-4.66"/><path class="cls-1" d="M42.48,34.28c-.79-4.26-6.67-5-9.7-3a11.7,11.7,0,0,1,6.28-6.19,31.28,31.28,0,0,0-4.48-1.29c1.94-1.48,6.71-2.6,9.13-2.39a9.61,9.61,0,0,0-1.44-.3l.46-2.77c-.27-2.32-2.37-5-4.87-6.58-1.24-3.55,0-10,1.68-11.73C38.68,9.29,51.8,15,54.35,21.88,52.91,16,46.84,12.17,44,8.61a9.44,9.44,0,0,1,1.06-7.52C44.56,7.32,51.14,12.4,54.63,16c4.12,4.23,5.21,7.9,4.54,10.85a2.52,2.52,0,0,1,1.91,2.74,5.16,5.16,0,0,0,3.15-2.73c.53,4.66-2.35,9.47-5.44,10.84a4.25,4.25,0,0,0-.46-3.92C57,32.07,53.12,31.93,51.8,32c0,0,1.69-2.34,1.08-3.57-.74-1.53-8.38-1.1-11.83,0a14.72,14.72,0,0,1,4.85.73c-.56.78-2.06,4.09-1.08,5.13s2-.43,2.15-.6c-.11.32-1.26,3.66-.47,4.5s2.67.33,2.67.33c-1.23,2.84-5.72,4.69-8.82,4.59a6.56,6.56,0,0,0,3.32-3.4,8.67,8.67,0,0,1-3.76.37c1-.38,3.1-2.89,2.57-5.81m10.92-8.8a7.63,7.63,0,0,0-4.29-4.66c.6,2.38,1.44,4.58,4.29,4.66"/><path class="cls-1" d="M26.12,16.82c.51-1.8-3-5-4.31-5.63a20.64,20.64,0,0,1,7.37,1A8.68,8.68,0,0,1,28.43,5c2.49,6.53,12.08,7.87,14.3,13.3l-.46,2.77c-3.79-.49-9.38.64-12.2,3.77a22.42,22.42,0,0,1,4.49.93c-4.27.64-10.15,4.4-11.91,6.21.52-2.44,1.27-4.49.74-6-.75-2.1-3.25-3.06-8.3-2.17,3.49-3.29,10.5-5.18,11-7"/></g></g></svg>