<svg xmlns="http://www.w3.org/2000/svg" viewBox="0 0 139.02 15.21"><defs><style>.cls-1{fill:#231f20;}</style></defs><title>Dungeons &amp;amp; Dragons</title><g id="Layer_2" data-name="Layer 2"><g id="Layer_1-2" data-name="Layer 1"><path class="cls-1" d="M82.26,12.21a2,2,0,0,1-2.42,1.84,1.72,1.72,0,0,0,1.54.32,2.5,2.5,0,0,1-2.49.77,2.09,2.09,0,0,1-1.5-1.88,1.17,1.17,0,0,0,0,1.59,1.56,1.56,0,0,1-1.1-1.27c-.09-.64.27-1.37-.4-2-.4-.35-1-.85-1.4-1.16-.82-.64-.51-1.12-.7-1.46s-.49-.41-.69-.65A.76.76,0,0,1,73,7.54a.58.58,0,0,0,.45.6c.3.1.56,0,.82.17s.16.66.39.84.71-.05,1.14.29S77.21,10.6,77.63,11a.76.76,0,0,0,1.27-.8,1.39,1.39,0,0,1,.21,2.16c.6.14,1.68-.13,1.68-1a1.05,1.05,0,0,0-.84-1,2,2,0,0,1,2.31,1.86M69.34,5.59c.07-.29-.51-.8-.73-.89a3.39,3.39,0,0,1,1.2.12,1.46,1.46,0,0,1-.16-1.16c.44,1,2,1.22,2.39,2.09a1.68,1.68,0,0,0-.82-1,2.45,2.45,0,0,1,.21-1.91c-.09,1.51,2.07,2.37,2.51,3.47-.26-.94-1.26-1.54-1.74-2.1A1.51,1.51,0,0,1,72.33,3c0,1,1,1.8,1.63,2.36a2,2,0,0,1,.79,1.74.41.41,0,0,1,.32.44.85.85,0,0,0,.5-.46,1.8,1.8,0,0,1-.83,1.78.67.67,0,0,0-.09-.63c-.22-.27-.86-.28-1.07-.26,0,0,.26-.39.16-.58s-1.37-.14-1.92.06a2.56,2.56,0,0,1,.79.09c-.09.13-.31.68-.15.84s.35-.11.35-.11-.2.6-.06.74.44,0,.44,0a1.67,1.67,0,0,1-1.41.78,1,1,0,0,0,.52-.56,1.58,1.58,0,0,1-.61.08.94.94,0,0,0,.39-1c-.15-.69-1.11-.77-1.59-.44a1.91,1.91,0,0,1,1-1,4.33,4.33,0,0,0-.73-.18,2.78,2.78,0,0,1,1.46-.44A2.49,2.49,0,0,0,70,6.87a3.73,3.73,0,0,1,.73.13,4.56,4.56,0,0,0-1.9,1.07,2,2,0,0,0,.09-1c-.13-.33-.54-.47-1.35-.31.55-.55,1.67-.89,1.75-1.19m4.72,1.46L74,6.8A1.44,1.44,0,0,0,73.15,6l-.34-.13.1.36c.08.3.24.87.9.87Zm-24.62.8A4.16,4.16,0,0,1,45.08,12a4.11,4.11,0,1,1,0-8.22,4.15,4.15,0,0,1,4.38,4.09m-2.29,0A2,2,0,0,0,45,5.7a2,2,0,0,0-2,2.2,2,2,0,0,0,2.05,2.16,2,2,0,0,0,2-2.21m-38.4,0a4.1,4.1,0,0,1-.83,2.5,3.8,3.8,0,0,1-.86.78,4.34,4.34,0,0,1-2.69.73H.21l.17-.11.76-.44c.23-.14.32-.28.32-.77V5.93c0-.51-.13-.65-.33-.79A2.49,2.49,0,0,1,0,3.49V3.38l.1.06a2.64,2.64,0,0,0,.72.31,11.62,11.62,0,0,0,2.31.12h1.6a4.2,4.2,0,0,1,2,.48A3.83,3.83,0,0,1,8.75,7.84m-2.32,0c0-1.3-.67-2.05-1.85-2.05H3.69v4.1h.89c1.18,0,1.85-.75,1.85-2M61.75,6.74l-.32-.08h0c-.76-.17-1.26-.32-1.26-.64a.33.33,0,0,1,.1-.26A1.12,1.12,0,0,1,61,5.54h.26a5.21,5.21,0,0,1,2.34.92l-.13-2.35-.15-.06h0L62.94,4a12.6,12.6,0,0,0-1.45-.24L61,3.7c-1.77,0-2.81.84-2.93,2.37a2.07,2.07,0,0,0,1,1.9,9.6,9.6,0,0,0,2,.8l.14,0c.39.12.83.36.77.82,0,.25-.13.51-.85.51l-.35,0a3.39,3.39,0,0,1-1.74-.85l-.06,0-.41-.3-.41-.32.16,3,.16.05h0l.36.09a15.39,15.39,0,0,0,1.6.24l.44,0c1.94,0,3.22-1,3.25-2.46s-.78-2.38-2.44-2.8M38.55,9.91H36.74V8.74h1.7A1.7,1.7,0,0,1,39,8.8a1.1,1.1,0,0,1,.28.24l.08.13V6.61l-.06,0-.2.11a1.27,1.27,0,0,1-.5,0H36.74v-1h1.88a1.14,1.14,0,0,1,.86.24L40,6.4,39.7,3.88H33.32l.17.1.7.44c.24.17.33.28.33.79v5.32c0,.52-.08.62-.32.77l-.75.44-.19.11h6.62l.59-2.66-.68.48a2,2,0,0,1-1.24.24m-12.41-6H21.62l.17.1.7.44c.25.16.34.27.34.79V7.14L19.49,3.88H14.25a.69.69,0,0,0-.33.1l-.05,0,0,0,.19.26a.62.62,0,0,1,.09.35V8.74h0v0c0,.85-.4,1.29-1.2,1.29s-1.24-.45-1.24-1.33V4.67a.62.62,0,0,1,.09-.35L12,4.06l0,0L12,4a.74.74,0,0,0-.33-.1H8.31l.17.1.71.44c.24.16.33.27.33.79V8.5a4.53,4.53,0,0,0,.25,1.68,2.62,2.62,0,0,0,.56.79A3.57,3.57,0,0,0,13,12a3.24,3.24,0,0,0,3.18-1.83,3.88,3.88,0,0,0,.24-1.59V5.21c0-.52.1-.63.34-.79l.48-.3.43.3c.23.17.34.34.34.86v5.25c0,.52-.09.62-.32.77l-.76.44-.18.11h4.53l-.18-.11-.75-.44c-.23-.15-.33-.26-.33-.77V7.36l4.85,4.75V5.21c0-.51.08-.62.33-.79s.76-.43.77-.44Zm25.67,0Zm6.65,0H53.94l.17.1.7.44c.24.16.33.27.33.79V7.14L51.81,3.88H49.15l.16.1.65.44c.23.17.34.34.34.86v5.25c0,.52-.1.62-.33.77l-.75.44-.19.11h4.54l-.19-.11-.75-.44c-.22-.15-.32-.26-.32-.77V7.36l4.84,4.75V5.21c0-.51.09-.62.33-.79s.77-.43.77-.44Zm-25.19,7.5s-.12-.16-.18-.26a.81.81,0,0,1-.1-.51V8.46c0-.32,0-.38.09-.48l.18-.27,0,0,0,0a1.29,1.29,0,0,0-.33-.1H29.53l.17.1.72.45c.22.14.33.29.33.77V10a2.63,2.63,0,0,1-.82.11c-1.36,0-2.06-.73-2.06-2.19A1.94,1.94,0,0,1,30,5.76a4.33,4.33,0,0,1,2.76,1V6.69l-.24-2.31,0-.17-.16,0-.16,0a10.22,10.22,0,0,0-1.41-.26,4.79,4.79,0,0,0-.7,0h-.13A4.09,4.09,0,0,0,25.58,8a4.08,4.08,0,0,0,4.33,4.09,11,11,0,0,0,1.81-.19l.24-.06h0c.31-.07.61-.15.92-.24l.39-.12ZM92.62,7.84a4,4,0,0,1-.83,2.5,3.6,3.6,0,0,1-.86.78,4.33,4.33,0,0,1-2.68.73H84.08l.18-.11L85,11.3c.23-.14.33-.28.33-.77V5.93c0-.51-.14-.65-.34-.79a2.53,2.53,0,0,1-1.12-1.65V3.38l.1.06a2.82,2.82,0,0,0,.72.31A11.68,11.68,0,0,0,87,3.87h1.61a4.27,4.27,0,0,1,2,.48,3.84,3.84,0,0,1,2.05,3.48m-2.32,0c0-1.3-.67-2.05-1.84-2.05h-.9v4.1h.9c1.17,0,1.84-.75,1.84-2m46.28-1.12-.33-.08h0C135.47,6.48,135,6.33,135,6a.33.33,0,0,1,.1-.26,1.1,1.1,0,0,1,.78-.21h.25a5.2,5.2,0,0,1,2.35.92l-.13-2.35-.16-.06h0L137.77,4a13.43,13.43,0,0,0-1.45-.24l-.46,0c-1.78,0-2.82.84-2.93,2.37a2.07,2.07,0,0,0,1,1.9,9.52,9.52,0,0,0,2,.8l.15,0c.38.12.83.36.77.82,0,.25-.13.51-.86.51l-.35,0a3.47,3.47,0,0,1-1.74-.85l-.06,0-.4-.3L133,8.6l.16,3,.15.05h0l.37.09a15.16,15.16,0,0,0,1.59.24l.44,0c1.94,0,3.22-1,3.26-2.46s-.78-2.38-2.44-2.8M124.27,7.85A4.16,4.16,0,0,1,119.91,12a4.11,4.11,0,1,1,0-8.21,4.15,4.15,0,0,1,4.38,4.08m-2.3,0a2,2,0,0,0-2.11-2.14,2,2,0,0,0-2,2.2,2,2,0,0,0,2.06,2.16,2,2,0,0,0,2-2.22m-14.06,3.47.67.53h-4.17s.35-.34.51-.51a.43.43,0,0,0,.11-.53l-.13-.36H102c-.06.16-.1.29-.13.36-.12.28-.09.36.07.52s.61.52.61.52H98.19l-2-2.42h0a1.84,1.84,0,0,0-.53-.55.39.39,0,0,0-.13,0v1.7c0,.5.1.59.33.77a9.8,9.8,0,0,0,1,.55H92.13s.71-.4.93-.55.33-.26.33-.77V5.22c0-.49-.1-.64-.33-.78L92.36,4l-.17-.1H96A4.62,4.62,0,0,1,97.41,4,2.13,2.13,0,0,1,99,6.16a2.22,2.22,0,0,1-.38,1.28,2.19,2.19,0,0,1-.74.68c.84,1.11,1.5,1.94,1.9,2.39,0,0,2.42-5.81,2.42-5.81s0-.08,0-.11,0-.09-.12-.2l-.57-.51h3.15s2.61,6.63,2.63,6.67h0a1.1,1.1,0,0,0,.17.31,1.43,1.43,0,0,0,.45.46M96.81,6.15c0-.41-.26-.68-1-.68h-.27V7.33h.27c.5,0,1-.11,1-1.18m7.42,2.41-.72-2-.78,2Zm29.05-4.68h-4.52l.17.1.71.44c.24.16.33.27.33.79V7.14l-3.34-3.26H124l.16.1s.41.27.64.44.34.34.34.86v5.25c0,.52-.09.62-.32.77l-.76.44-.18.11h4.53l-.18-.11-.75-.44c-.23-.15-.33-.26-.33-.77V7.36L132,12.1V5.21c0-.51.09-.62.33-.79s.76-.43.77-.44ZM115,11.05a.81.81,0,0,1-.1-.51V8.39c0-.32,0-.38.09-.48s.19-.27.19-.27l0,0-.06,0a1,1,0,0,0-.32-.1h-3.4l.17.1.73.45c.22.14.33.29.33.77V10a2.62,2.62,0,0,1-.82.12c-1.37,0-2.06-.74-2.06-2.2a1.94,1.94,0,0,1,2.08-2.18,4.31,4.31,0,0,1,2.76,1V6.62l-.24-2.31,0-.17-.17,0-.16,0a10.22,10.22,0,0,0-1.41-.26,4.68,4.68,0,0,0-.7-.05h-.13a4.09,4.09,0,0,0-4.31,4.15A4.08,4.08,0,0,0,111.77,12a11.15,11.15,0,0,0,1.82-.19l.24-.06h0l.91-.24.39-.12,0-.07a3,3,0,0,1-.19-.26M79.6,6.34c-1.72.09-3.19,1.54-3.95,2.57a1.5,1.5,0,0,1,.41.22l.64.53a9,9,0,0,1,1.37-2.17,1.82,1.82,0,0,1,2.35-.36,3.44,3.44,0,0,1,2.37-.47A3.39,3.39,0,0,0,80.5,5.6c-.81,0-1.27.39-1.39.22s.55-.57.55-.57c-1,0-1.65,1.16-1.94,1s.26-.62.26-.62a4.12,4.12,0,0,0-1.76,2.24A4.29,4.29,0,0,1,79.6,6.34M74.38,10.9a3.23,3.23,0,0,1-2.31,1.71c-1.73,0-2.6-2.45-.67-4.46a1.1,1.1,0,0,0-.25,0,.83.83,0,0,0-.43.12L69.87,9l.24-1.19a.61.61,0,0,1,0-.12,4.41,4.41,0,0,0-1,.69l-.77.84L68.45,8l.06-.26a1.39,1.39,0,0,0,.06-.49l0-.06A3.65,3.65,0,0,0,67.07,9.6a1.24,1.24,0,0,1,.35-.33c.11,0,.21,0,.1.33a4.35,4.35,0,0,0,.88,4.48s-.21-.52-.08-.68.14-.09.25,0a3.76,3.76,0,0,0,.25.31h0a3.39,3.39,0,0,0,.51.49,3.85,3.85,0,0,0,2.18.7A4.65,4.65,0,0,0,75.71,12l-.1-.11c-.35-.31-.85-.73-1.23-1M69.21,4.3a1.76,1.76,0,0,1,.06-.76l.34-1,.42,1a1.6,1.6,0,0,0,.69.7A3.18,3.18,0,0,1,71,2.81a1.23,1.23,0,0,1,1.16-1.37c1.1,0,1.4,1.34.89,2.31a5.69,5.69,0,0,0,.92,1l.32.29.08.09a4.21,4.21,0,0,0,.83-2.25A2.77,2.77,0,0,0,72.3,0,3.23,3.23,0,0,0,69.63,1a2.81,2.81,0,0,0-.78,2.3,2.24,2.24,0,0,0,.36,1"/></g></g></svg>