<svg xmlns="http://www.w3.org/2000/svg" viewBox="0 0 184.75 179.25"><defs><style>.cls-1{fill:#231f20;}.cls-2{fill:#fff;}</style></defs><title>Equipment</title><g id="Layer_2" data-name="Layer 2"><g id="Layer_1-2" data-name="Layer 1"><path class="cls-1" d="M179.17,177.87h-2.71a11.38,11.38,0,0,0,5.07-4.25h0v-.07a15.52,15.52,0,0,0,1.8-3.76v3.88ZM6.05,173.67v-3.88a16.3,16.3,0,0,0,1.8,3.76v.07H7.9A11.32,11.32,0,0,0,13,177.87H10.26ZM10.26,1.38H13A11.26,11.26,0,0,0,7.9,5.63H7.85V5.7a16.3,16.3,0,0,0-1.8,3.76V5.58ZM181.57,6.84c.17.3.35.58.5.9a17.39,17.39,0,0,1,1.3,3.94V167.52a17.12,17.12,0,0,1-1.8,4.87ZM6.05,11.73a17.75,17.75,0,0,1,1.8-4.87V172.41c-.16-.3-.34-.58-.49-.9a18.15,18.15,0,0,1-1.31-3.94ZM174.52,177.87H14.88a10.56,10.56,0,0,1-6.28-4.28V5.68a10.68,10.68,0,0,1,6.31-4.3H174.55a10.54,10.54,0,0,1,6.27,4.27V173.57a10.65,10.65,0,0,1-6.3,4.3M183.37,5.58V9.46a15.52,15.52,0,0,0-1.8-3.76V5.63h0a11.31,11.31,0,0,0-5.07-4.25h2.71ZM179.74,0H9.69l-5,5V174.24l5,5H179.74l5-5V5Z"/><path class="cls-2" d="M29.74,14.43a1.83,1.83,0,0,1-3.06-1.74h-19a1.82,1.82,0,0,1-3.06,1.74L.5,17.87v3.41l4.08,3.44a1.82,1.82,0,0,1,3.06,1.74h19a1.83,1.83,0,0,1,3.06-1.74l4.08-3.44V17.87Z"/><path class="cls-1" d="M8.19,26H26.13a2.29,2.29,0,0,1,.67-1.59,2.39,2.39,0,0,1,2.94-.3l3.58-3V18.11l-3.58-3a2.37,2.37,0,0,1-2.94-.3,2.29,2.29,0,0,1-.67-1.59H8.2a2.3,2.3,0,0,1-.68,1.59,2.37,2.37,0,0,1-2.93.3L1,18.11v2.94l3.59,3a2.38,2.38,0,0,1,2.93.3A2.28,2.28,0,0,1,8.19,26m19.14,1H7l.15-.62a1.3,1.3,0,0,0-.34-1.26,1.35,1.35,0,0,0-1.88,0l-.32.32L0,21.51V17.64l4.61-3.89.32.33a1.37,1.37,0,0,0,1.88,0,1.32,1.32,0,0,0,.34-1.27L7,12.19H27.33l-.16.62a1.32,1.32,0,0,0,.34,1.27,1.37,1.37,0,0,0,1.88,0l.33-.33,4.6,3.89v3.87l-4.6,3.89-.33-.32a1.35,1.35,0,0,0-1.88,0,1.3,1.3,0,0,0-.34,1.26Z"/><polygon class="cls-2" points="53.94 22.01 53.94 17.14 47.4 8.91 17.87 8.91 11.34 17.14 11.33 22.01 17.87 30.24 47.4 30.24 53.94 22.01"/><path class="cls-1" d="M18.15,29.68h29l6.25-7.87V17.34L47.13,9.48h-29L11.9,17.34v4.47ZM47.67,30.8H17.6l-6.83-8.6V17l6.83-8.6H47.67L54.5,17V22.2Z"/><polygon class="cls-1" points="11.76 19.76 11.29 19.39 20.01 8.72 20.47 9.1 11.76 19.76"/><polygon class="cls-1" points="53.7 19.76 44.99 9.1 45.46 8.72 54.17 19.39 53.7 19.76"/><rect class="cls-1" x="15.58" y="18.02" width="0.6" height="13.77" transform="translate(-12.17 15.66) rotate(-39.23)"/><rect class="cls-1" x="42.7" y="24.61" width="13.77" height="0.6" transform="translate(-1.05 47.61) rotate(-50.82)"/><path class="cls-2" d="M29.74,66.34a1.83,1.83,0,0,1-3.06-1.74h-19a1.82,1.82,0,0,1-3.06,1.74L.5,69.79v3.4l4.08,3.44a1.83,1.83,0,0,1,3.06,1.75h19a1.83,1.83,0,0,1,3.06-1.75l4.08-3.44v-3.4Z"/><path class="cls-1" d="M8.19,77.88H26.13a2.3,2.3,0,0,1,.67-1.6,2.4,2.4,0,0,1,2.94-.3l3.58-3V70l-3.58-3a2.37,2.37,0,0,1-2.94-.3,2.28,2.28,0,0,1-.67-1.59H8.2a2.33,2.33,0,0,1-.68,1.6A2.37,2.37,0,0,1,4.59,67L1,70V73l3.59,3a2.38,2.38,0,0,1,2.93.3,2.3,2.3,0,0,1,.67,1.6m19.14,1H7l.15-.63A1.3,1.3,0,0,0,6.81,77a1.35,1.35,0,0,0-1.88,0l-.32.32L0,73.42V69.55l4.61-3.89.32.33a1.37,1.37,0,0,0,1.88,0,1.31,1.31,0,0,0,.34-1.27L7,64.1H27.33l-.16.62A1.31,1.31,0,0,0,27.51,66a1.37,1.37,0,0,0,1.88,0l.33-.33,4.6,3.89v3.87l-4.6,3.89L29.39,77a1.35,1.35,0,0,0-1.88,0,1.3,1.3,0,0,0-.34,1.26Z"/><polygon class="cls-2" points="53.94 73.92 53.94 69.05 47.4 60.83 17.87 60.83 11.34 69.05 11.33 73.92 17.87 82.15 47.4 82.15 53.94 73.92"/><path class="cls-1" d="M18.15,81.59h29l6.25-7.87V69.25l-6.24-7.86h-29L11.9,69.25v4.47Zm29.52,1.12H17.6l-6.83-8.59V68.86l6.83-8.6H47.67l6.83,8.6v5.26Z"/><path class="cls-1" d="M13.29,76.25l-.49-.35a7.53,7.53,0,0,0,1.39-4.38,7.6,7.6,0,0,0-1.41-4.42l.49-.35a8.22,8.22,0,0,1,1.52,4.77,8.16,8.16,0,0,1-1.5,4.73"/><path class="cls-1" d="M52,76.25a8.23,8.23,0,0,1,0-9.5l.49.35a7.61,7.61,0,0,0,0,8.8Z"/><path class="cls-1" d="M14.22,68.67l-.58-.13a4.94,4.94,0,0,1,2.77-3.13c.16-.92,1.3-4.88,8.66-4.88v.6c-7.71,0-8.09,4.45-8.09,4.5v.18l-.17.07a4.47,4.47,0,0,0-2.58,2.79"/><path class="cls-1" d="M51.07,68.67a4.38,4.38,0,0,0-2.58-2.79l-.16-.07v-.18c0-.18-.42-4.5-8.09-4.5v-.6c7.35,0,8.49,4,8.66,4.88a5,5,0,0,1,2.77,3.13Z"/><path class="cls-2" d="M51.41,71.49a.69.69,0,1,0-.69.69.69.69,0,0,0,.69-.69"/><path class="cls-1" d="M50.72,71.05a.44.44,0,1,0,.44.44.44.44,0,0,0-.44-.44m0,1.38a.94.94,0,1,1,.94-.94.94.94,0,0,1-.94.94"/><path class="cls-2" d="M15.24,71.49a.69.69,0,1,0-.69.69.69.69,0,0,0,.69-.69"/><path class="cls-1" d="M14.55,71.05a.44.44,0,1,0,.44.44.44.44,0,0,0-.13-.31.4.4,0,0,0-.31-.13m0,1.38a.94.94,0,0,1,0-1.88,1,1,0,0,1,.94.94.94.94,0,0,1-.94.94"/><path class="cls-1" d="M25.07,82.45c-7.36,0-8.5-4-8.66-4.88a4.94,4.94,0,0,1-2.77-3.13l.58-.13a4.44,4.44,0,0,0,2.58,2.78l.17.08v.18c0,.18.41,4.5,8.09,4.5Z"/><path class="cls-1" d="M40.23,82.45v-.6c7.71,0,8.08-4.46,8.08-4.5l0-.18.16-.08a4.41,4.41,0,0,0,2.58-2.78l.59.13a5,5,0,0,1-2.77,3.13c-.17.91-1.31,4.88-8.66,4.88"/><path class="cls-2" d="M29.74,118.25a1.83,1.83,0,0,1-3.06-1.74h-19a1.82,1.82,0,0,1-3.06,1.74L.5,121.7v3.4l4.08,3.44a1.83,1.83,0,0,1,3.06,1.75h19a1.83,1.83,0,0,1,3.06-1.75l4.08-3.44v-3.4Z"/><path class="cls-1" d="M8.19,129.79H26.13a2.3,2.3,0,0,1,.67-1.6,2.4,2.4,0,0,1,2.94-.3l3.58-3v-2.94l-3.58-3a2.37,2.37,0,0,1-2.94-.3,2.26,2.26,0,0,1-.67-1.59H8.2a2.31,2.31,0,0,1-.68,1.6,2.37,2.37,0,0,1-2.93.29l-3.59,3v2.94l3.59,3a2.37,2.37,0,0,1,2.93.29,2.3,2.3,0,0,1,.67,1.6m19.14,1H7l.15-.63a1.3,1.3,0,0,0-.34-1.26,1.36,1.36,0,0,0-1.88,0l-.32.32L0,125.33v-3.87l4.61-3.88.32.32a1.37,1.37,0,0,0,1.88,0,1.31,1.31,0,0,0,.34-1.27L7,116H27.33l-.16.62a1.31,1.31,0,0,0,.34,1.27,1.36,1.36,0,0,0,1.88,0l.33-.32,4.6,3.88v3.87l-4.6,3.89-.33-.32a1.35,1.35,0,0,0-1.88,0,1.3,1.3,0,0,0-.34,1.26Z"/><polygon class="cls-2" points="53.94 125.83 53.94 120.97 47.4 112.74 17.87 112.74 11.34 120.97 11.33 125.83 17.87 134.06 47.4 134.06 53.94 125.83"/><path class="cls-1" d="M18.15,133.5h29l6.25-7.87v-4.47l-6.24-7.86h-29l-6.24,7.86v4.47Zm29.52,1.12H17.6L10.77,126v-5.26l6.83-8.6H47.67l6.83,8.6V126Z"/><path class="cls-1" d="M13.29,128.16l-.49-.35a7.53,7.53,0,0,0,1.39-4.38A7.62,7.62,0,0,0,12.78,119l.49-.35a8.22,8.22,0,0,1,1.52,4.77,8.16,8.16,0,0,1-1.5,4.73"/><path class="cls-2" d="M13.89,124.6h0a1.27,1.27,0,0,0,.52.11,1.3,1.3,0,1,0,0-2.59,1.46,1.46,0,0,0-.52.1l-.09.06-.12.06-1.94,1.07,1.94,1.07.12.07Z"/><path class="cls-1" d="M12.26,123.41l1.75,1a1,1,0,0,0,.4.08,1,1,0,1,0,0-2.1,1,1,0,0,0-.42.09l-.07,0-.1.06ZM14.41,125a1.68,1.68,0,0,1-.62-.13l-.11-.06a.75.75,0,0,1-.14-.08l-2.31-1.28,2.33-1.29.09-.05.12-.06a1.55,1.55,0,1,1,.64,2.95"/><path class="cls-1" d="M15,122.5a6.87,6.87,0,0,1,.13-3.39c.48-1.78,1.87-4.36,5.72-6.59l.25.43c-7,4.08-5.68,9.2-5.62,9.42Z"/><path class="cls-1" d="M20.86,134.28c-3.85-2.23-5.24-4.81-5.72-6.59a6.93,6.93,0,0,1-.13-3.4l.49.14c-.07.22-1.43,5.34,5.61,9.41Z"/><path class="cls-1" d="M30.79,134.11l-.49-.1a1.27,1.27,0,0,0-.34-1.12c-.43-.41-1.47-.76-4-.11-5.31,1.39-8.34-.95-8.46-1.05l.31-.39s3,2.29,8,1c2.19-.57,3.69-.5,4.45.23a1.8,1.8,0,0,1,.48,1.58"/><path class="cls-1" d="M52,128.16a8.23,8.23,0,0,1,0-9.5l.49.35a7.62,7.62,0,0,0-1.41,4.42,7.53,7.53,0,0,0,1.39,4.38Z"/><path class="cls-2" d="M51.38,124.6h0a1.27,1.27,0,0,1-.52.11,1.3,1.3,0,0,1,0-2.59,1.46,1.46,0,0,1,.52.1l.09.06.12.06,1.94,1.07-1.94,1.07a.47.47,0,0,1-.12.07Z"/><path class="cls-1" d="M50.86,122.36a1.05,1.05,0,0,0,0,2.1,1,1,0,0,0,.42-.09l1.73-1-1.54-.85-.08,0-.13-.08a1,1,0,0,0-.4-.08m0,2.6a1.55,1.55,0,0,1,0-3.1,1.44,1.44,0,0,1,.62.14l.11.06.14.07L54,123.41l-2.33,1.29s-.05,0-.09,0l-.11.07a1.56,1.56,0,0,1-.65.14"/><path class="cls-1" d="M50.26,122.5l-.48-.13c.06-.22,1.42-5.34-5.62-9.42l.25-.43c3.85,2.23,5.24,4.81,5.72,6.59a6.73,6.73,0,0,1,.13,3.39"/><path class="cls-1" d="M44.41,134.28l-.25-.44c7-4.07,5.68-9.19,5.62-9.41l.48-.14a6.79,6.79,0,0,1-.13,3.4c-.48,1.78-1.87,4.36-5.72,6.59"/><path class="cls-1" d="M34.48,134.11a1.8,1.8,0,0,1,.48-1.58c.77-.73,2.26-.8,4.45-.23,5.06,1.33,8-.94,8-1l.32.39c-.13.1-3.16,2.44-8.46,1.05-2.51-.65-3.55-.3-4,.11A1.28,1.28,0,0,0,35,134Z"/><path class="cls-1" d="M17.84,115.46l-.31-.39c.12-.1,3.15-2.45,8.46-1.06,2.5.66,3.54.31,4-.11a1.27,1.27,0,0,0,.35-1.1l.48-.12a1.79,1.79,0,0,1-.48,1.58c-.76.73-2.26.81-4.45.24-5.06-1.33-8,.94-8,1"/><path class="cls-1" d="M47.43,115.46s-3-2.29-8-1c-2.19.57-3.68.49-4.45-.24a1.79,1.79,0,0,1-.48-1.58l.49.11a1.28,1.28,0,0,0,.34,1.12c.44.41,1.48.76,4,.1,5.3-1.38,8.33,1,8.46,1.06Z"/><path class="cls-2" d="M29.74,92.3a1.83,1.83,0,0,1-3.06-1.74h-19A1.82,1.82,0,0,1,4.58,92.3L.5,95.74v3.41l4.08,3.44a1.82,1.82,0,0,1,3.06,1.74h19a1.83,1.83,0,0,1,3.06-1.74l4.08-3.44V95.74Z"/><path class="cls-1" d="M8.19,103.83H26.13a2.29,2.29,0,0,1,.67-1.59,2.39,2.39,0,0,1,2.94-.3l3.58-3V96l-3.58-3a2.39,2.39,0,0,1-2.94-.3,2.29,2.29,0,0,1-.67-1.59H8.2a2.3,2.3,0,0,1-.68,1.59,2.37,2.37,0,0,1-2.93.3L1,96v2.94l3.59,3a2.38,2.38,0,0,1,2.93.3,2.28,2.28,0,0,1,.67,1.59m19.14,1H7l.15-.62A1.29,1.29,0,0,0,6.81,103a1.36,1.36,0,0,0-1.88,0l-.32.33L0,99.38V95.51l4.61-3.89.32.33a1.36,1.36,0,0,0,1.88,0,1.3,1.3,0,0,0,.34-1.26L7,90.06H27.33l-.16.62a1.3,1.3,0,0,0,.34,1.26,1.36,1.36,0,0,0,1.88,0l.33-.33,4.6,3.89v3.87l-4.6,3.89-.33-.33a1.37,1.37,0,0,0-1.88,0,1.32,1.32,0,0,0-.34,1.27Z"/><polygon class="cls-2" points="53.94 99.87 53.94 95.01 47.4 86.78 17.87 86.78 11.34 95.01 11.33 99.87 17.87 108.11 47.4 108.11 53.94 99.87"/><path class="cls-1" d="M18.15,107.54h29l6.25-7.86V95.2l-6.24-7.86h-29L11.9,95.2v4.48Zm29.52,1.13H17.6l-6.83-8.6V94.81l6.83-8.59H47.67l6.83,8.59v5.26Z"/><path class="cls-1" d="M13.29,102.21l-.49-.35a7.55,7.55,0,0,0,1.39-4.38,7.63,7.63,0,0,0-1.41-4.43l.49-.34a8.23,8.23,0,0,1,0,9.5"/><path class="cls-1" d="M52,102.21a8.23,8.23,0,0,1,0-9.5l.49.34a7.63,7.63,0,0,0-1.41,4.43,7.55,7.55,0,0,0,1.39,4.38Z"/><path class="cls-2" d="M13.57,97.44a1,1,0,1,1,1,1,1,1,0,0,1-1-1"/><path class="cls-1" d="M14.55,96.71a.73.73,0,0,0-.52.22.71.71,0,0,0-.21.51.73.73,0,1,0,.73-.73m0,2a1.23,1.23,0,0,1-1.23-1.23,1.18,1.18,0,0,1,.36-.86,1.19,1.19,0,0,1,.87-.37,1.23,1.23,0,0,1,0,2.46"/><path class="cls-2" d="M51.7,97.44a1,1,0,1,0-1,1,1,1,0,0,0,1-1"/><path class="cls-1" d="M50.72,96.71a.73.73,0,1,0,.73.73.75.75,0,0,0-.21-.51.73.73,0,0,0-.52-.22m0,2a1.23,1.23,0,1,1,0-2.46,1.19,1.19,0,0,1,.87.37,1.22,1.22,0,0,1-.87,2.09"/><path class="cls-1" d="M51.77,96.91l-.5-.07a3.45,3.45,0,0,1,2.13-2.62l.18.46a3,3,0,0,0-1.81,2.23"/><path class="cls-1" d="M51.19,94.6l-3.92-5a1.6,1.6,0,0,0-2.1,0l-.17.12L42.37,87l.36-.34,2.35,2.52a2.05,2.05,0,0,1,2.57.15l3.93,5Z"/><path class="cls-1" d="M53.4,100.67a3.47,3.47,0,0,1-2.13-2.62l.5-.07a3,3,0,0,0,1.81,2.22Z"/><path class="cls-1" d="M42.73,108.28l-.36-.34L45,105.11l.17.12c1.3.87,2.08.07,2.11,0l3.91-5,.39.31-3.92,5a2,2,0,0,1-2.58.17Z"/><path class="cls-1" d="M13.55,96.91a3,3,0,0,0-1.82-2.23l.18-.46A3.45,3.45,0,0,1,14,96.84Z"/><path class="cls-1" d="M14.13,94.6l-.4-.31,3.92-5a2.06,2.06,0,0,1,2.59-.17l2.34-2.52L23,87l-2.63,2.83-.18-.12a1.58,1.58,0,0,0-2.11,0Z"/><path class="cls-1" d="M11.91,100.67l-.18-.47A3,3,0,0,0,13.55,98l.49.07a3.47,3.47,0,0,1-2.13,2.62"/><path class="cls-1" d="M22.58,108.28l-2.34-2.52a2.07,2.07,0,0,1-2.57-.15l-3.94-5,.4-.31,3.91,5a1.62,1.62,0,0,0,2.1,0l.18-.12L23,107.94Z"/><path class="cls-2" d="M29.74,40.39a1.83,1.83,0,0,1-3.06-1.75h-19a1.82,1.82,0,0,1-3.06,1.75L.5,43.83v3.41l4.08,3.44a1.82,1.82,0,0,1,3.06,1.74h19a1.83,1.83,0,0,1,3.06-1.74l4.08-3.44V43.83Z"/><path class="cls-1" d="M8.19,51.92H26.13a2.28,2.28,0,0,1,.67-1.59,2.39,2.39,0,0,1,2.94-.3l3.58-3V44.06l-3.58-3a2.39,2.39,0,0,1-2.94-.3,2.29,2.29,0,0,1-.67-1.59H8.2a2.3,2.3,0,0,1-.68,1.59,2.37,2.37,0,0,1-2.93.3L1,44.06V47l3.59,3a2.38,2.38,0,0,1,2.93.3,2.28,2.28,0,0,1,.67,1.59m19.14,1H7l.15-.62A1.32,1.32,0,0,0,6.81,51a1.37,1.37,0,0,0-1.88,0l-.32.33L0,47.47V43.6l4.61-3.89.32.32a1.35,1.35,0,0,0,1.88,0,1.3,1.3,0,0,0,.34-1.26L7,38.15H27.33l-.16.62A1.3,1.3,0,0,0,27.51,40a1.35,1.35,0,0,0,1.88,0l.33-.32,4.6,3.89v3.87l-4.6,3.89L29.39,51a1.37,1.37,0,0,0-1.88,0,1.31,1.31,0,0,0-.34,1.27Z"/><polygon class="cls-2" points="53.94 47.96 53.94 43.1 47.4 34.87 17.87 34.87 11.34 43.1 11.33 47.96 17.87 56.2 47.4 56.2 53.94 47.96"/><path class="cls-1" d="M18.15,55.63h29l6.25-7.86V43.29l-6.24-7.86h-29L11.9,43.29v4.48Zm29.52,1.13H17.6l-6.83-8.6V42.9l6.83-8.59H47.67L54.5,42.9v5.26Z"/><path class="cls-1" d="M13.57,45.53a1,1,0,1,1,1,1,1,1,0,0,1-1-1"/><polygon class="cls-1" points="20 56.38 13.7 48.68 14.16 48.3 20.47 56.01 20 56.38"/><polygon class="cls-1" points="14.14 42.77 13.67 42.39 20.01 34.68 20.47 35.06 14.14 42.77"/><path class="cls-1" d="M13.29,50.29,12.8,50a7.55,7.55,0,0,0,1.39-4.38,7.63,7.63,0,0,0-1.41-4.43l.49-.34a8.21,8.21,0,0,1,0,9.49"/><path class="cls-1" d="M51.7,45.53a1,1,0,1,0-1,1,1,1,0,0,0,1-1"/><polygon class="cls-1" points="45.26 56.39 44.8 56.01 51.13 48.29 51.6 48.67 45.26 56.39"/><rect class="cls-1" x="47.9" y="33.73" width="0.6" height="9.97" transform="translate(-13.62 39.43) rotate(-39.44)"/><path class="cls-1" d="M52,50.29a8.21,8.21,0,0,1,0-9.49l.49.34a7.63,7.63,0,0,0-1.41,4.43A7.55,7.55,0,0,0,52.47,50Z"/></g></g></svg>