<svg xmlns="http://www.w3.org/2000/svg" viewBox="0 0 184.85 387.15"><defs><style>.cls-1{fill:#231f20;}</style></defs><title>Features &amp;amp; Traits</title><g id="Layer_2" data-name="Layer 2"><g id="Layer_1-2" data-name="Layer 1"><path class="cls-1" d="M183.75,378.15c-.27.09-.72.26-1.26.49V365.12c.81,4.08,1.66,9.52,1.26,13m-2.51,4c-1.1.41-3.9,1.65-4.38,3.73h-1.69c.64-2.46,3.66-4.4,6.07-5.59Zm-177.5,0v-1.79c2.39,1.19,5.31,3.1,5.94,5.52H8.12c-.48-2.08-3.28-3.32-4.38-3.73m-2.64-4c-.42-3.7.54-9.54,1.39-13.68v14.22c-.6-.25-1.09-.44-1.39-.54m7-376.9h2.51C7.36,3,5,6.4,3.74,8.63V5c1.1-.41,3.9-1.65,4.38-3.74M181.24,5V8.63C180,6.4,177.62,3,174.36,1.25h2.5c.48,2.09,3.28,3.33,4.38,3.74M180.4,9.2c.4.69.68,1.25.84,1.6v362a88.49,88.49,0,0,1-.84-11.47ZM3.74,376.28a97.64,97.64,0,0,0,1.35-15V8.35C6.74,5.68,9.69,2,13.57,1.25H171.41c3.88.72,6.83,4.44,8.49,7.11v353a97.51,97.51,0,0,0,1.34,15v2.91c-2.7,1.28-6.45,3.58-7.1,6.71H10.71c-.64-3.08-4.28-5.36-7-6.65Zm0-365.49c.17-.34.45-.9.85-1.6V361.31a88.63,88.63,0,0,1-.85,11.47ZM182.49,360.45V4.08L182.05,4c-1.11-.35-4-1.63-4-3.32V0H6.94V.63c0,1.69-2.89,3-4,3.32l-.44.13V359.92C1.85,362.47-.63,373,.15,378.59l0,.31.3.09s.86.29,2,.8v3.28l.44.14c1.12.34,4,1.61,4,3.32v.62H178v-.62c0-1.7,2.9-3,4-3.32l.44-.14v-3.34c1.08-.47,1.85-.73,1.87-.74l.3-.09,0-.31c.74-5.28-1.42-14.89-2.21-18.14"/></g></g></svg>