<svg xmlns="http://www.w3.org/2000/svg" viewBox="0 0 564.16 96.05"><defs><style>.cls-1{fill:#231f20;}.cls-2{fill:#fff;}.cls-3,.cls-4,.cls-6,.cls-7{fill:none;}.cls-3,.cls-4,.cls-6{stroke:#231f20;stroke-miterlimit:10;}.cls-3{stroke-width:1.38px;}.cls-4{stroke-width:0.75px;}.cls-5{fill:#bfc0c3;}.cls-6{stroke-width:1.25px;}.cls-7{stroke:#b1b3b6;stroke-width:0.25px;}</style></defs><title>Header</title><g id="Layer_2" data-name="Layer 2"><g id="Layer_1-2" data-name="Layer 1"><path class="cls-1" d="M57.34,5a22.83,22.83,0,0,0,.22,6.34,50.35,50.35,0,0,0-4.29-2.77,10,10,0,0,1-3.16-3.65c-.48-.85-.76-1.48-.76-1.48a6.6,6.6,0,0,0-1.1,7.27,14.23,14.23,0,0,0-7.88.19c9.18,6,4.3,6.5-1,9s-5.68,5.63-5.68,5.63c6.33-2.08,8.85.58,8.85.58-3.41,3.26-.37,8.35-.37,8.35,3.31,6.34,11.51,9,18.85,10.15a70.1,70.1,0,0,0,13.7.67L58,50.46,43,54.25S28.07,52.65,22.59,40s4.09-22.57,3.13-23.22-2.07.76-2.19.91c4.16-11.91,16.69-11.78,17.19-13s-2.47-1.35-2.47-1.35C50.92-.84,57.34,5,57.34,5"/><path class="cls-2" d="M544.53,39V77.16c14.56-.09,16.46,0,18.94-3.23V36.43C558.81,38.91,554,39,544.53,39"/><path class="cls-3" d="M544.53,39V77.16c14.56-.09,16.46,0,18.94-3.23V36.43C558.81,38.91,554,39,544.53,39Z"/><path class="cls-4" d="M544.53,74.05c19.6,2.23,17.93-3.58,18.8-3.76M543.92,41.85c16.24-.05,17.69-1.17,19.16-2.3"/><path class="cls-2" d="M167.9,70a.05.05,0,0,1,0,0,1.09,1.09,0,0,0,.14.9c.22.32,5.43,7.94,12.23,7.94a9.36,9.36,0,0,0,4.47-1.17c.59-.38,1.16-.76,1.65-1.1A54.51,54.51,0,0,0,194.68,70Z"/><polygon class="cls-2" points="0.69 45.73 0.69 83.23 36.19 78.59 36.19 41.09 0.69 45.73"/><polygon class="cls-3" points="0.69 45.73 0.69 83.23 36.19 78.59 36.19 41.09 0.69 45.73"/><path class="cls-4" d="M1.46,48.24l34.73-4.42M1.46,80.45l34.73-4.93"/><polygon class="cls-5" points="36.19 41.09 11.97 37.51 11.97 75.01 36.19 78.59 36.19 41.09"/><polygon class="cls-3" points="36.19 41.09 11.97 37.51 11.97 75.01 36.19 78.59 36.19 41.09"/><path class="cls-2" d="M231,75C169.25,86.26,73.72,63.76,12,75V37.51c61.75-11.25,157.28,11.25,219,0Z"/><path class="cls-3" d="M231,75C169.25,86.26,73.72,63.76,12,75V37.51c61.75-11.25,157.28,11.25,219,0Z"/><path class="cls-4" d="M231,40.43s-19.87,8-114-.29c-66.51-5.89-99.72-.73-104.86.17M231.89,71.39s-20.5,8.66-114.67.33C50.71,65.83,17.5,71,12.36,71.89"/><rect class="cls-2" x="230.91" y="25.97" width="313.89" height="60.64"/><rect class="cls-6" x="230.91" y="25.97" width="313.89" height="60.64"/><path class="cls-2" d="M228.82,19.67V92.92a11.79,11.79,0,0,1,2.1-3.56V23.23a11.68,11.68,0,0,1-2.09-3.56"/><path class="cls-6" d="M228.82,19.67V92.92a11.79,11.79,0,0,1,2.1-3.56V23.23A11.68,11.68,0,0,1,228.82,19.67Z"/><path class="cls-6" d="M230.91,78.73s1.07,10.33,8.4,10.33h22s7.17-2.44,20.5-2.44m-50.9-52.76s1.07-10.33,8.4-10.33h22S268.48,26,281.81,26"/><path class="cls-2" d="M546.91,19.67V92.92a11.79,11.79,0,0,0-2.1-3.56V23.23a11.79,11.79,0,0,0,2.1-3.56"/><path class="cls-6" d="M546.91,19.67V92.92a11.79,11.79,0,0,0-2.1-3.56V23.23A11.79,11.79,0,0,0,546.91,19.67Z"/><path class="cls-6" d="M544.81,78.73s-1.07,10.33-8.4,10.33h-22s-7.17-2.44-20.5-2.44m50.9-52.76s-1.07-10.33-8.4-10.33h-22S507.24,26,493.91,26"/><path class="cls-4" d="M252.81,86.62A103.79,103.79,0,0,1,270,84.69H505.7a103.79,103.79,0,0,1,17.21,1.93m0-60.64A104.88,104.88,0,0,1,505.7,27.9H270A104.88,104.88,0,0,1,252.81,26"/><path class="cls-2" d="M70,20.82a7.63,7.63,0,0,1,4.29,4.66C71.44,25.4,70.6,23.2,70,20.82"/><path class="cls-1" d="M226.31,80c-.64-3.47-3.09-9.12-7.83-12.11-3.92-2.46-7.34-1.92-7.36-3.15,0-1.55,4.37-1.07,4.37-1.07-4.74-2.71-11.53.61-12.5-.94-.58-.94,3.16-2.24,3.16-2.24-5.78-.21-12.59,2.76-15.33,5.46,6.89-2.31,16.6-1,21.05,2.83a20.4,20.4,0,0,0-6-2.19c-7.82-1.57-16.52.76-21.76,2.94a50.78,50.78,0,0,0-10.43,5c-3.9,2.27-11.11,4.38-16,2.31h0s7.65,12.75,17.06,8.32c.69-.39,1.35-.78,2-1.17A64.46,64.46,0,0,0,187,76.57a52.66,52.66,0,0,1,14-6.88,10.48,10.48,0,0,1,4.43-.33c3.71.51,7,2.89,8,5.74,2.87-.5,10.14,1.9,12.88,4.94"/><path class="cls-1" d="M63.37,34.28c-.79-4.26-6.67-5-9.7-3A11.7,11.7,0,0,1,60,25.06a31.28,31.28,0,0,0-4.48-1.29c1.94-1.48,6.71-2.6,9.13-2.39a9.61,9.61,0,0,0-1.44-.3l.46-2.77c-.27-2.32-2.37-5-4.87-6.58-1.24-3.55,0-10,1.68-11.73-.86,9.29,12.26,15,14.81,21.88C73.8,16,67.73,12.17,64.89,8.61A9.44,9.44,0,0,1,66,1.09C65.45,7.32,72,12.4,75.52,16c4.12,4.23,5.21,7.9,4.54,10.85A2.52,2.52,0,0,1,82,29.59a5.16,5.16,0,0,0,3.15-2.73c.53,4.66-2.35,9.47-5.44,10.84a4.25,4.25,0,0,0-.46-3.92C77.9,32.07,74,31.93,72.69,32c0,0,1.69-2.34,1.08-3.57-.74-1.53-8.38-1.1-11.83,0a14.72,14.72,0,0,1,4.85.73c-.56.78-2.06,4.09-1.08,5.13s2-.43,2.15-.6c-.11.32-1.26,3.66-.47,4.5s2.67.33,2.67.33c-1.23,2.84-5.72,4.69-8.82,4.59a6.56,6.56,0,0,0,3.32-3.4,8.67,8.67,0,0,1-3.76.37c1-.38,3.1-2.89,2.57-5.81m10.92-8.8A7.63,7.63,0,0,0,70,20.82c.6,2.38,1.44,4.58,4.29,4.66"/><path class="cls-1" d="M47,16.82c.51-1.8-3-5-4.31-5.63a20.64,20.64,0,0,1,7.37,1A8.68,8.68,0,0,1,49.32,5c2.49,6.53,12.08,7.87,14.3,13.3l-.46,2.77c-3.79-.49-9.38.64-12.2,3.77a22.42,22.42,0,0,1,4.49.93c-4.27.64-10.15,4.4-11.91,6.21.52-2.44,1.27-4.49.74-6C43.53,23.91,41,23,36,23.84c3.49-3.29,10.5-5.18,11-7"/><path class="cls-1" d="M19,33.34l1,2.22c-1.37.23-2.91,5.64-2.91,5.64-3.49-2-.55-8.48-.55-8.48Z"/><path class="cls-1" d="M11.36,32.42a12.49,12.49,0,0,1,2.78-1.55l1.59,1.41-.82.25s-1.53,5-.91,7.07l1,2.9s-3.26-.65-3.76-1.9c0,0-1.05-5.63.12-8.18"/><path class="cls-1" d="M9.52,34.54s.21,6.42.87,7l2.42,1,.07,2.19s-4.32-1.37-4.68-3S7.56,36,7.56,36a4,4,0,0,1,2-1.44"/><line class="cls-7" x1="240.28" y1="47.98" x2="538.36" y2="47.98"/><line class="cls-7" x1="240.28" y1="74.06" x2="538.36" y2="74.06"/></g></g></svg>